<svg width="40" height="40" viewBox="0 0 40 40" fill="none" xmlns="http://www.w3.org/2000/svg">
<rect width="40" height="40" rx="20" fill="#00845F"/>
<path d="M16 26H24V14H16V26ZM28 28C28 28.55 27.8042 29.0208 27.4125 29.4125C27.0208 29.8042 26.55 30 26 30H14C13.45 30 12.9792 29.8042 12.5875 29.4125C12.1958 29.0208 12 28.55 12 28V12C12 11.45 12.1958 10.9792 12.5875 10.5875C12.9792 10.1958 13.45 10 14 10H26C26.55 10 27.0208 10.1958 27.4125 10.5875C27.8042 10.9792 28 11.45 28 12V28ZM26 28V12H14V28H26Z" fill="#F4F3F3"/>
</svg>
