<svg width="40" height="40" viewBox="0 0 40 40" fill="none" xmlns="http://www.w3.org/2000/svg">
<rect width="40" height="40" rx="20" fill="#00845F"/>
<path d="M20 30C17.6833 29.4167 15.7708 28.0875 14.2625 26.0125C12.7542 23.9375 12 21.6333 12 19.1V13L20 10L28 13V19.1C28 21.6333 27.2458 23.9375 25.7375 26.0125C24.2292 28.0875 22.3167 29.4167 20 30ZM20 27.9C21.6167 27.4 22.9667 26.4125 24.05 24.9375C25.1333 23.4625 25.7667 21.8167 25.95 20H20V12.125L14 14.375V19.55C14 19.6667 14.0167 19.8167 14.05 20H20V27.9Z" fill="#F4F3F3"/>
</svg>
