<svg width="40" height="40" viewBox="0 0 40 40" fill="none" xmlns="http://www.w3.org/2000/svg">
<rect width="40" height="40" rx="20" fill="#00845F"/>
<path d="M19.875 28C19.9417 28 20.0083 27.9833 20.075 27.95C20.1417 27.9167 20.1917 27.8833 20.225 27.85L28.425 19.65C28.625 19.45 28.7708 19.225 28.8625 18.975C28.9542 18.725 29 18.475 29 18.225C29 17.9583 28.9542 17.7042 28.8625 17.4625C28.7708 17.2208 28.625 17.0083 28.425 16.825L24.175 12.575C23.9917 12.375 23.7792 12.2292 23.5375 12.1375C23.2958 12.0458 23.0417 12 22.775 12C22.525 12 22.275 12.0458 22.025 12.1375C21.775 12.2292 21.55 12.375 21.35 12.575L21.075 12.85L22.925 14.725C23.175 14.9583 23.3583 15.225 23.475 15.525C23.5917 15.825 23.65 16.1417 23.65 16.475C23.65 17.175 23.4125 17.7625 22.9375 18.2375C22.4625 18.7125 21.875 18.95 21.175 18.95C20.8417 18.95 20.5208 18.8917 20.2125 18.775C19.9042 18.6583 19.6333 18.4833 19.4 18.25L17.525 16.4L13.15 20.775C13.1 20.825 13.0625 20.8792 13.0375 20.9375C13.0125 20.9958 13 21.0583 13 21.125C13 21.2583 13.05 21.3792 13.15 21.4875C13.25 21.5958 13.3667 21.65 13.5 21.65C13.5667 21.65 13.6333 21.6333 13.7 21.6C13.7667 21.5667 13.8167 21.5333 13.85 21.5L17.25 18.1L18.65 19.5L15.275 22.9C15.225 22.95 15.1875 23.0042 15.1625 23.0625C15.1375 23.1208 15.125 23.1833 15.125 23.25C15.125 23.3833 15.175 23.5 15.275 23.6C15.375 23.7 15.4917 23.75 15.625 23.75C15.6917 23.75 15.7583 23.7333 15.825 23.7C15.8917 23.6667 15.9417 23.6333 15.975 23.6L19.375 20.225L20.775 21.625L17.4 25.025C17.35 25.0583 17.3125 25.1083 17.2875 25.175C17.2625 25.2417 17.25 25.3083 17.25 25.375C17.25 25.5083 17.3 25.625 17.4 25.725C17.5 25.825 17.6167 25.875 17.75 25.875C17.8167 25.875 17.8792 25.8625 17.9375 25.8375C17.9958 25.8125 18.05 25.775 18.1 25.725L21.5 22.35L22.9 23.75L19.5 27.15C19.45 27.2 19.4125 27.2542 19.3875 27.3125C19.3625 27.3708 19.35 27.4333 19.35 27.5C19.35 27.6333 19.4042 27.75 19.5125 27.85C19.6208 27.95 19.7417 28 19.875 28ZM19.85 30C19.2333 30 18.6875 29.7958 18.2125 29.3875C17.7375 28.9792 17.4583 28.4667 17.375 27.85C16.8083 27.7667 16.3333 27.5333 15.95 27.15C15.5667 26.7667 15.3333 26.2917 15.25 25.725C14.6833 25.6417 14.2125 25.4042 13.8375 25.0125C13.4625 24.6208 13.2333 24.15 13.15 23.6C12.5167 23.5167 12 23.2417 11.6 22.775C11.2 22.3083 11 21.7583 11 21.125C11 20.7917 11.0625 20.4708 11.1875 20.1625C11.3125 19.8542 11.4917 19.5833 11.725 19.35L17.525 13.575L20.8 16.85C20.8333 16.9 20.8833 16.9375 20.95 16.9625C21.0167 16.9875 21.0833 17 21.15 17C21.3 17 21.425 16.9542 21.525 16.8625C21.625 16.7708 21.675 16.65 21.675 16.5C21.675 16.4333 21.6625 16.3667 21.6375 16.3C21.6125 16.2333 21.575 16.1833 21.525 16.15L17.95 12.575C17.7667 12.375 17.5542 12.2292 17.3125 12.1375C17.0708 12.0458 16.8167 12 16.55 12C16.3 12 16.05 12.0458 15.8 12.1375C15.55 12.2292 15.325 12.375 15.125 12.575L11.6 16.125C11.45 16.275 11.325 16.45 11.225 16.65C11.125 16.85 11.0583 17.05 11.025 17.25C10.9917 17.45 10.9917 17.6542 11.025 17.8625C11.0583 18.0708 11.125 18.2667 11.225 18.45L9.77499 19.9C9.49166 19.5167 9.28332 19.0958 9.14999 18.6375C9.01666 18.1792 8.96666 17.7167 8.99999 17.25C9.03332 16.7833 9.14999 16.3292 9.34999 15.8875C9.54999 15.4458 9.82499 15.05 10.175 14.7L13.7 11.175C14.1 10.7917 14.5458 10.5 15.0375 10.3C15.5292 10.1 16.0333 10 16.55 10C17.0667 10 17.5708 10.1 18.0625 10.3C18.5542 10.5 18.9917 10.7917 19.375 11.175L19.65 11.45L19.925 11.175C20.325 10.7917 20.7708 10.5 21.2625 10.3C21.7542 10.1 22.2583 10 22.775 10C23.2917 10 23.7958 10.1 24.2875 10.3C24.7792 10.5 25.2167 10.7917 25.6 11.175L29.825 15.4C30.2083 15.7833 30.5 16.225 30.7 16.725C30.9 17.225 31 17.7333 31 18.25C31 18.7667 30.9 19.2708 30.7 19.7625C30.5 20.2542 30.2083 20.6917 29.825 21.075L21.625 29.25C21.3917 29.4833 21.1208 29.6667 20.8125 29.8C20.5042 29.9333 20.1833 30 19.85 30Z" fill="#F4F3F3"/>
</svg>
