<svg width="64" height="32" viewBox="0 0 64 32" fill="none" xmlns="http://www.w3.org/2000/svg">
<path d="M0.667847 21.1712H4.24739C4.38096 22.3733 5.42277 23.2014 7.26597 23.2014C8.84204 23.2014 9.80371 22.6938 9.80371 21.7322C9.80371 20.6102 8.86875 20.5301 6.65157 20.2362C3.446 19.8622 0.96169 19.141 0.96169 16.3094C0.96169 13.5847 3.33915 11.7949 6.86527 11.8216C10.5517 11.8216 13.0894 13.4511 13.2764 16.256H9.67014C9.56329 15.1608 8.52148 14.4929 6.99884 14.4929C5.52962 14.4929 4.56795 15.0272 4.56795 15.9087C4.56795 16.9505 5.74332 17.0574 7.72009 17.2978C10.8722 17.6184 13.4901 18.3396 13.4901 21.4383C13.4901 24.163 10.9257 25.8994 7.23926 25.8994C3.41929 25.8994 0.828125 24.1096 0.667847 21.1712ZM16.0351 10.5394C14.8063 10.5394 13.8447 9.63115 13.8447 8.42907C13.8447 7.20027 14.8063 6.29202 16.0351 6.29202C17.2639 6.29202 18.2256 7.20027 18.2256 8.42907C18.2256 9.63115 17.2639 10.5394 16.0351 10.5394ZM14.1385 25.7391V12.0086H17.9318V25.7391H14.1385ZM25.9793 25.8994C21.4114 25.8994 18.6599 23.148 18.6599 18.9006C18.6599 14.6265 21.4648 11.8483 25.7122 11.8483C29.826 11.8483 32.6041 14.4128 32.6575 18.4465C32.6575 18.8472 32.6308 19.3013 32.5507 19.7287H22.5867V19.9157C22.6669 21.8657 23.9224 23.0411 25.819 23.0411C27.3417 23.0411 28.4102 22.3733 28.7307 21.091H32.4438C32.0164 23.7624 29.639 25.8994 25.9793 25.8994ZM22.6669 17.2711H28.8643C28.5972 15.5882 27.4485 14.6532 25.7389 14.6532C24.1094 14.6532 22.8806 15.6416 22.6669 17.2711ZM33.3802 25.7391V7.03999H37.1468V17.8321L42.5161 12.0086H46.7635L41.8216 17.4046L47.0306 25.7391H42.6764L39.2037 20.1828L37.1468 22.4V25.7391H33.3802Z" fill="#F4F3F3"/>
<path d="M63.956 16.9203C63.956 13.458 64 9.84658 64 6.38429C64 5.34063 63.0211 4.49576 61.8112 4.49576C60.1466 4.49576 59.4337 5.69292 59.5167 7.29776L58.5344 4.26928C58.294 3.56392 57.2666 2.69677 55.8492 2.97506C54.6878 3.24839 53.9748 4.28119 54.282 5.29172L55.0094 7.80898L52.2872 4.03632C51.6824 3.13347 50.1838 2.83232 49.0024 3.42156C47.9561 3.94339 47.5925 5.32407 48.2225 6.2365L51.7997 11.2905C49.0924 12.067 47.0902 13.7103 46.3101 15.6261C45.8085 16.8581 47.0329 18.3325 48.5213 18.3325C50.3772 18.3325 50.7012 16.8078 51.8222 15.9755C52.4845 15.4785 53.4067 15.1871 54.357 15.2119C56.2193 15.2699 57.8254 16.5559 57.9116 18.1711C58.0079 19.9602 56.3267 21.5665 54.282 21.5665C52.8421 21.5665 51.181 20.6587 50.6747 19.5023C50.3507 18.7623 49.3352 18.331 48.4174 18.331C46.9487 18.331 45.8525 19.6382 46.2876 20.9324C47.4588 23.9557 50.8099 25.9105 54.7168 25.9022C59.5066 25.8774 63.956 22.1878 63.956 16.9203Z" fill="#00845F"/>
<path d="M55.4971 3.08633C54.5489 3.46657 54.0077 4.38806 54.2824 5.29175L54.9576 7.62812L56.5471 9.87981L55.2574 4.97465C55.1207 4.49926 55.0161 3.55738 55.4971 3.08633Z" fill="#F4F3F3"/>
<path d="M48.6108 3.68182C47.8751 4.31392 47.6792 5.44944 48.2227 6.23653L51.7953 11.284C52.6957 11.0575 53.67 11.0575 54.7621 11.0575C53.7573 10.8634 52.618 10.6092 51.9433 9.87976C51.2686 9.15033 48.9426 5.67352 48.9426 5.67352C48.5948 5.22151 48.1491 4.30587 48.6108 3.68182Z" fill="#F4F3F3"/>
<path d="M59.5111 7.14324C59.4872 5.91623 59.9469 4.95127 60.9653 4.61984C60.578 5.03106 60.47 5.72774 60.4767 6.1524L60.2964 9.87977L59.5111 7.14324Z" fill="#F4F3F3"/>
</svg>
