<svg width="40" height="40" viewBox="0 0 40 40" fill="none" xmlns="http://www.w3.org/2000/svg">
<rect width="40" height="40" rx="20" fill="#00845F"/>
<path d="M13.15 26.85C12.4667 26.05 11.9375 25.1542 11.5625 24.1625C11.1875 23.1708 11 22.1167 11 21C11 18.5 11.875 16.375 13.625 14.625C15.375 12.875 17.5 12 20 12H20.2L18.6 10.4L20 9L24 13L20 17L18.575 15.575L20.15 14H20C18.0667 14 16.4167 14.6833 15.05 16.05C13.6833 17.4167 13 19.0667 13 21C13 21.85 13.1375 22.65 13.4125 23.4C13.6875 24.15 14.075 24.825 14.575 25.425L13.15 26.85ZM19 26.5C19 26.1167 18.8708 25.7375 18.6125 25.3625C18.3542 24.9875 18.0667 24.5958 17.75 24.1875C17.4333 23.7792 17.1458 23.3542 16.8875 22.9125C16.6292 22.4708 16.5 22 16.5 21.5C16.5 20.5333 16.8417 19.7083 17.525 19.025C18.2083 18.3417 19.0333 18 20 18C20.9667 18 21.7917 18.3417 22.475 19.025C23.1583 19.7083 23.5 20.5333 23.5 21.5C23.5 22 23.3708 22.4708 23.1125 22.9125C22.8542 23.3542 22.5667 23.7792 22.25 24.1875C21.9333 24.5958 21.6458 24.9875 21.3875 25.3625C21.1292 25.7375 21 26.1167 21 26.5H19ZM19 29V27.5H21V29H19ZM26.85 26.85L25.425 25.425C25.925 24.825 26.3125 24.15 26.5875 23.4C26.8625 22.65 27 21.85 27 21C27 19.9 26.7708 18.8792 26.3125 17.9375C25.8542 16.9958 25.225 16.2083 24.425 15.575L25.85 14.15C26.8167 14.9833 27.5833 15.9875 28.15 17.1625C28.7167 18.3375 29 19.6167 29 21C29 22.1167 28.8125 23.1708 28.4375 24.1625C28.0625 25.1542 27.5333 26.05 26.85 26.85Z" fill="#F4F3F3"/>
</svg>
